<svg aria-hidden="true" style="position: absolute; width: 0; height: 0; overflow: hidden;" version="1.1" xmlns="http://www.w3.org/2000/svg" xmlns:xlink="http://www.w3.org/1999/xlink">
<defs>
<symbol id="icon-nav" viewBox="0 0 32 32">
<path d="M2 6h28v6h-28zM2 14h28v6h-28zM2 22h28v6h-28z"></path>
</symbol>
<symbol id="icon-x" viewBox="0 0 219 32">
<path d="M1.339 20.734c-1.785 1.785-1.785 4.68 0 6.465s4.68 1.785 6.465 0l6.465-6.465 6.465 6.465c1.785 1.785 4.68 1.785 6.465 0s1.785-4.68 0-6.465l-6.465-6.465 6.465-6.465c1.785-1.785 1.785-4.68 0-6.465s-4.68-1.785-6.465 0l-6.465 6.465-6.465-6.465c-1.785-1.785-4.68-1.785-6.465 0s-1.785 4.68 0 6.465l6.465 6.465-6.465 6.465zM47.053 20.734c-1.785 1.785-1.785 4.68 0 6.465s4.68 1.785 6.465 0l6.465-6.465 6.465 6.465c1.786 1.785 4.68 1.785 6.465 0s1.786-4.68 0-6.465l-6.465-6.465 6.465-6.465c1.786-1.785 1.786-4.68 0-6.465s-4.679-1.785-6.465 0l-6.465 6.465-6.465-6.465c-1.785-1.785-4.68-1.785-6.465 0s-1.785 4.68 0 6.465l6.465 6.465-6.465 6.465zM92.768 27.199c-1.785-1.785-1.785-4.68 0-6.465l6.465-6.465-6.465-6.465c-1.785-1.785-1.785-4.68 0-6.465s4.68-1.785 6.465 0l6.465 6.465 6.465-6.465c1.786-1.785 4.68-1.785 6.465 0s1.786 4.68 0 6.465l-6.465 6.465 6.465 6.465c1.786 1.785 1.786 4.68 0 6.465s-4.679 1.785-6.465 0l-6.465-6.465-6.465 6.465c-1.785 1.785-4.68 1.785-6.465 0zM138.482 20.734c-1.785 1.785-1.785 4.68 0 6.465s4.68 1.785 6.465 0l6.465-6.465 6.465 6.465c1.786 1.785 4.68 1.785 6.465 0s1.786-4.68 0-6.465l-6.465-6.465 6.465-6.465c1.786-1.785 1.786-4.68 0-6.465s-4.679-1.785-6.465 0l-6.465 6.465-6.465-6.465c-1.785-1.785-4.68-1.785-6.465 0s-1.785 4.68 0 6.465l6.465 6.465-6.465 6.465zM188.768 27.199c-1.785-1.785-1.785-4.68 0-6.465l6.465-6.465-6.465-6.465c-1.785-1.785-1.785-4.68 0-6.465s4.68-1.785 6.465 0l6.465 6.465 6.465-6.465c1.786-1.785 4.68-1.785 6.465 0s1.786 4.68 0 6.465l-6.465 6.465 6.465 6.465c1.786 1.785 1.786 4.68 0 6.465s-4.679 1.785-6.465 0l-6.465-6.465-6.465 6.465c-1.785 1.785-4.68 1.785-6.465 0z"></path>
</symbol>
<symbol id="icon-search" viewBox="0 0 32 32">
<path d="M23.030 20.611l8.97 8.97-2.419 2.419-8.97-8.97c-2.158 1.649-4.856 2.629-7.782 2.629-7.085 0-12.829-5.744-12.829-12.829s5.744-12.829 12.829-12.829c7.085 0 12.829 5.744 12.829 12.829 0 2.926-0.98 5.623-2.629 7.782zM12.829 22.238c5.196 0 9.408-4.212 9.408-9.408s-4.212-9.408-9.408-9.408c-5.196 0-9.408 4.212-9.408 9.408s4.212 9.408 9.408 9.408z"></path>
</symbol>
<symbol id="icon-in" viewBox="0 0 32 32">
<path d="M15.6 2.8c7 0 12.7 5.7 12.7 12.7s-5.7 12.7-12.7 12.7-12.8-5.6-12.8-12.6c0-7 5.8-12.8 12.8-12.8zM15.6 0.3c-8.5 0-15.3 6.8-15.3 15.3 0 8.4 6.8 15.3 15.3 15.3 8.4 0 15.3-6.8 15.3-15.3s-6.9-15.3-15.3-15.3zM13 10.5c0 0.7-0.6 1.3-1.3 1.3s-1.3-0.6-1.3-1.3c0-0.7 0.6-1.3 1.3-1.3 0.8 0 1.3 0.6 1.3 1.3zM13 13h-2.5v7.6h2.5v-7.6zM16.9 13h-2.5v7.6h2.5c0 0 0-2.3 0-3.6 0-2.2 2.6-2.4 2.6 0 0 1.2 0 3.6 0 3.6h2.5c0 0 0-2 0-4.3 0-4.2-4-4-5.1-2v-1.3z"></path>
</symbol>
<symbol id="icon-instagram" viewBox="0 0 32 32">
<path d="M15.6 2.8c7 0 12.7 5.7 12.7 12.7s-5.7 12.7-12.7 12.7-12.8-5.6-12.8-12.6c0-7 5.8-12.8 12.8-12.8zM15.6 0.3c-8.5 0-15.3 6.8-15.3 15.3 0 8.4 6.8 15.3 15.3 15.3 8.4 0 15.3-6.8 15.3-15.3s-6.9-15.3-15.3-15.3z"></path>
<path d="M23.7 15.6c0 1.1 0 2.3 0 3.4 0 2-1.2 3.6-2.8 4.3-0.6 0.3-1.3 0.4-2 0.4-2.2 0-4.4 0-6.6 0-1.7 0-3-0.7-4-2.1-0.5-0.7-0.8-1.5-0.8-2.4 0-2.3 0-4.7 0-7 0-1.9 0.9-3.3 2.6-4.1 0.7-0.4 1.5-0.5 2.3-0.5 2.1 0 4.3 0 6.4 0 1.7 0 3 0.6 4.1 2 0.6 0.7 0.8 1.6 0.8 2.5 0 1.1 0 2.3 0 3.5zM8.7 15.6c0 1.2 0 2.4 0 3.6 0 0.5 0.1 1 0.4 1.5 0.7 1.2 1.8 1.8 3.2 1.8 2.2 0 4.4 0 6.6 0 0.5 0 1.1-0.1 1.6-0.3 1.3-0.6 2.1-1.6 2.1-3.2 0-2.3 0-4.7 0-7 0-0.7-0.2-1.3-0.6-1.8-0.8-1-1.8-1.5-3-1.5-2.2 0-4.4 0-6.6 0-0.5 0-0.9 0.1-1.4 0.3-1.2 0.4-2.3 1.6-2.3 3.3 0 1 0 2.2 0 3.3z"></path>
<path d="M15.6 19.1c-2.1 0-3.8-1.7-3.8-3.8s1.7-3.8 3.8-3.8c2.1 0 3.8 1.7 3.8 3.8s-1.7 3.8-3.8 3.8zM15.6 17.9c1.4 0 2.6-1.2 2.6-2.6s-1.2-2.5-2.6-2.5c-1.4 0-2.6 1.1-2.6 2.6 0 1.3 1.2 2.5 2.6 2.5z"></path>
<path d="M19.9 10.4c0.4 0 0.8 0.4 0.8 0.8 0 0.5-0.4 0.8-0.8 0.8s-0.8-0.4-0.8-0.8c0-0.4 0.3-0.8 0.8-0.8z"></path>
</symbol>
<symbol id="icon-youtube" viewBox="0 0 32 32">
<path d="M10.9 7.9h0.9l0.6 2.4 0.6-2.4h1l-1.1 3.5v2.4h-0.9v-2.4l-1.1-3.5zM15.1 9.5c-0.7 0-1.2 0.5-1.2 1.2v2.1c0 0.8 0.4 1.2 1.2 1.2 0.7 0 1.2-0.4 1.2-1.2v-2.1c0-0.8-0.5-1.2-1.2-1.2zM15.4 12.7c0 0.2-0.1 0.4-0.3 0.4s-0.4-0.2-0.4-0.4v-2c0-0.2 0.1-0.4 0.3-0.4s0.4 0.2 0.4 0.4v2zM18.5 9.5v3.3c-0.1 0.1-0.3 0.3-0.5 0.3s-0.2-0.1-0.2-0.3v-3.3h-0.8v3.6c0 0.4 0.1 0.8 0.6 0.8 0.2 0 0.6-0.1 0.9-0.5v0.5h0.8v-4.4h-0.8zM19.9 18.3c-0.3 0-0.3 0.2-0.3 0.5v0.4h0.7v-0.4c-0.1-0.3-0.2-0.5-0.4-0.5zM16.9 18.3c-0.1 0-0.1 0.1-0.2 0.1v2.6c0.1 0.1 0.1 0.1 0.2 0.1 0.1 0.1 0.3 0.1 0.4 0 0-0.1 0.1-0.2 0.1-0.3v-2.1c0-0.1 0-0.2-0.1-0.3s-0.3-0.1-0.4-0.1zM19.9 15c-1.7-0.1-7.1-0.1-8.7 0-1.8 0.1-2 1.2-2 4.1 0 2.8 0.2 3.9 2 4.1 1.7 0.1 7 0.1 8.7 0 1.8-0.1 2-1.2 2-4.1s-0.2-3.9-2-4.1zM12.1 21.8h-0.9v-4.8h-0.9v-0.8h2.7v0.8h-0.9v4.8zM15.2 21.8h-0.8v-0.5c-0.1 0.2-0.3 0.3-0.4 0.4-0.4 0.2-1 0.2-1-0.6v-3.5h0.8v3.2c0 0.2 0 0.3 0.2 0.3s0.4-0.2 0.5-0.3v-3.1h0.8v4.1h-0.1zM18.1 21c0 0.5-0.2 0.9-0.7 0.9-0.3 0-0.5-0.1-0.7-0.4v0.3h-0.8v-5.6h0.8v1.8c0.2-0.2 0.4-0.4 0.7-0.4 0.6 0 0.8 0.5 0.8 1v2.4h-0.1zM21 19.9h-1.5v0.8c0 0.3 0 0.6 0.3 0.6s0.3-0.2 0.3-0.6v-0.3h0.9v0.3c0 0.8-0.3 1.3-1.2 1.3-0.7 0-1.1-0.5-1.1-1.3v-1.9c0-0.7 0.5-1.2 1.2-1.2s1.1 0.5 1.1 1.2v1.1zM15.6 2.8c7 0 12.7 5.7 12.7 12.7s-5.7 12.7-12.7 12.7-12.7-5.7-12.7-12.7c-0.1-6.9 5.7-12.7 12.7-12.7zM15.6 0.3c-8.5 0-15.3 6.8-15.3 15.3 0 8.4 6.8 15.3 15.3 15.3 8.4 0 15.3-6.8 15.3-15.3s-6.9-15.3-15.3-15.3z"></path>
</symbol>
<symbol id="icon-twitter" viewBox="0 0 32 32">
<path d="M15.6 2.8c7 0 12.7 5.7 12.7 12.7s-5.7 12.7-12.7 12.7-12.8-5.6-12.8-12.6c0-7 5.8-12.8 12.8-12.8zM15.6 0.3c-8.5 0-15.3 6.8-15.3 15.3 0 8.4 6.8 15.3 15.3 15.3 8.4 0 15.3-6.8 15.3-15.3s-6.9-15.3-15.3-15.3zM23.9 11.5c-0.6 0.3-1.2 0.4-1.8 0.5 0.6-0.4 1.1-1 1.4-1.7-0.6 0.4-1.3 0.6-2 0.8-0.6-0.6-1.4-1-2.3-1-2 0-3.5 1.9-3.1 3.9-2.6-0.1-4.9-1.4-6.5-3.3-0.8 1.4-0.4 3.3 1 4.2-0.5 0-1-0.2-1.4-0.4 0 1.5 1 2.8 2.5 3.1-0.4 0.1-0.9 0.1-1.4 0.1 0.4 1.2 1.6 2.2 2.9 2.2-1.3 1-3 1.5-4.6 1.3 1.4 0.9 3 1.4 4.8 1.4 5.8 0 9.1-4.9 8.9-9.3 0.6-0.6 1.2-1.2 1.6-1.8z"></path>
</symbol>
<symbol id="icon-facebook" viewBox="0 0 32 32">
<path d="M15.6 2.8c7 0 12.7 5.7 12.7 12.7s-5.7 12.7-12.7 12.7-12.8-5.6-12.8-12.6c0-7 5.8-12.8 12.8-12.8zM15.6 0.3c-8.5 0-15.3 6.8-15.3 15.3 0 8.4 6.8 15.3 15.3 15.3 8.4 0 15.3-6.8 15.3-15.3s-6.9-15.3-15.3-15.3zM13 13h-2.5v2.5h2.5v7.6h3.8v-7.6h2.3l0.2-2.5h-2.5c0 0 0-0.6 0-1.1 0-0.6 0.1-0.8 0.7-0.8 0.5 0 1.8 0 1.8 0v-3.2c0 0-2.7 0-3.1 0-2.3 0-3.3 1-3.3 2.9 0.1 1.8 0.1 2.2 0.1 2.2z"></path>
</symbol>
<symbol id="icon-product-7" viewBox="0 0 31 32">
<path stroke-linejoin="miter" stroke-linecap="butt" stroke-miterlimit="4" stroke-width="0.3254" d="M14.403 0.114c0.178-0.156 0.429-0.113 0.643-0.093 0.632 0.081 1.257 0.239 1.845 0.492 0.529 0.237 1.015 0.569 1.434 0.972 0.394 0.374 0.755 0.795 0.995 1.289 0.285-0.334 0.525-0.704 0.749-1.083 0.077-0.118 0.162-0.236 0.276-0.319 0.19-0.116 0.447-0.173 0.645-0.043 0.133 0.076 0.184 0.234 0.295 0.333 0.296 0.287 0.605 0.561 0.928 0.816 0.217 0.187 0.429 0.38 0.632 0.583 0.293 0.28 0.538 0.606 0.789 0.924 0.196 0.294 0.397 0.587 0.526 0.919 0.357-0.295 0.726-0.575 1.060-0.897 0.114-0.12 0.283-0.15 0.441-0.147 0.129-0.009 0.257 0.042 0.351 0.131 0.237 0.219 0.401 0.502 0.587 0.764 0.269 0.441 0.53 0.893 0.682 1.392 0.137 0.372 0.194 0.766 0.243 1.158 0.049 0.658 0.033 1.337-0.179 1.967 0.191-0.024 0.383-0.045 0.573-0.070 0.38-0.055 0.746-0.23 1.136-0.193 0.201 0.056 0.408 0.183 0.473 0.397 0.056 0.159-0.017 0.321-0.015 0.482-0.004 0.491 0.069 0.977 0.103 1.465 0.053 0.74 0.024 1.489-0.127 2.217-0.053 0.233-0.104 0.468-0.203 0.686 0.469 0.042 0.936 0.109 1.407 0.123 0.151-0.002 0.277 0.096 0.38 0.199 0.088 0.084 0.15 0.199 0.157 0.322 0.012 0.268-0.025 0.535-0.079 0.796-0.051 0.352-0.157 0.691-0.252 1.032-0.104 0.302-0.239 0.591-0.386 0.872-0.191 0.365-0.453 0.685-0.716 0.997-0.379 0.403-0.796 0.783-1.295 1.025 0.329 0.293 0.695 0.536 1.072 0.76 0.149 0.109 0.316 0.228 0.374 0.415 0.069 0.167 0.080 0.37-0.022 0.526-0.076 0.131-0.224 0.187-0.324 0.295-0.222 0.232-0.429 0.477-0.627 0.73-0.483 0.62-1.034 1.189-1.662 1.659-0.287 0.199-0.576 0.4-0.9 0.534 0.234 0.298 0.463 0.599 0.712 0.884 0.108 0.132 0.258 0.247 0.293 0.424 0.024 0.165 0.044 0.351-0.054 0.496-0.151 0.224-0.387 0.363-0.597 0.522-0.26 0.199-0.547 0.356-0.831 0.517-0.696 0.375-1.48 0.574-2.267 0.59-0.524 0.016-1.058-0.027-1.556-0.202 0.027 0.244 0.041 0.491 0.094 0.731 0.056 0.329 0.19 0.649 0.162 0.988-0.053 0.267-0.269 0.542-0.562 0.518-0.498-0.088-1.002 0.013-1.501 0.048-0.562 0.050-1.13 0.066-1.692 0.006-0.478-0.052-0.961-0.13-1.407-0.32-0.054 0.48-0.112 0.961-0.129 1.444-0.005 0.148-0.099 0.27-0.197 0.371-0.085 0.091-0.203 0.155-0.329 0.158-0.254 0.009-0.509-0.024-0.757-0.078-0.859-0.149-1.705-0.459-2.407-0.994-0.596-0.458-1.134-1.019-1.475-1.7-0.167 0.226-0.355 0.436-0.496 0.68-0.162 0.251-0.284 0.545-0.53 0.726-0.183 0.11-0.427 0.169-0.622 0.054-0.122-0.063-0.184-0.19-0.268-0.293-0.282-0.303-0.606-0.56-0.926-0.82-0.428-0.37-0.846-0.758-1.197-1.206-0.315-0.388-0.605-0.803-0.803-1.267-0.379 0.304-0.752 0.616-1.113 0.942-0.128 0.101-0.299 0.102-0.453 0.098-0.196-0.014-0.343-0.169-0.46-0.314-0.559-0.731-1.030-1.553-1.233-2.462-0.138-0.696-0.178-1.419-0.053-2.12 0.024-0.175 0.070-0.347 0.135-0.51-0.313 0.036-0.628 0.066-0.934 0.144-0.256 0.060-0.516 0.149-0.783 0.115-0.194-0.058-0.394-0.178-0.461-0.383-0.056-0.151-0.002-0.309 0.008-0.463 0.005-0.7-0.14-1.39-0.13-2.090-0.013-0.512 0.042-1.023 0.129-1.527 0.056-0.263 0.114-0.529 0.223-0.776-0.468-0.051-0.936-0.113-1.408-0.129-0.117-0.001-0.221-0.065-0.308-0.139-0.112-0.085-0.207-0.206-0.224-0.352-0.027-0.335 0.055-0.664 0.105-0.992 0.173-0.86 0.496-1.705 1.044-2.392 0.436-0.549 0.951-1.055 1.58-1.37-0.167-0.125-0.325-0.262-0.492-0.387-0.23-0.157-0.472-0.295-0.7-0.454-0.182-0.131-0.3-0.345-0.309-0.572-0.009-0.163 0.070-0.327 0.201-0.421 0.076-0.054 0.153-0.107 0.215-0.177 0.158-0.171 0.319-0.341 0.467-0.522 0.318-0.423 0.67-0.82 1.040-1.196 0.123-0.123 0.253-0.236 0.39-0.343 0.385-0.337 0.809-0.635 1.275-0.845-0.247-0.316-0.488-0.639-0.756-0.938-0.091-0.111-0.213-0.207-0.245-0.356-0.033-0.183-0.049-0.398 0.077-0.551 0.222-0.267 0.527-0.443 0.804-0.644 0.325-0.197 0.644-0.411 1-0.546 0.535-0.239 1.115-0.357 1.696-0.396 0.581-0.028 1.179-0.001 1.73 0.201-0.039-0.255-0.050-0.515-0.108-0.768-0.059-0.317-0.185-0.63-0.155-0.958 0.052-0.202 0.172-0.41 0.376-0.481 0.135-0.052 0.279-0.014 0.416 0.003 0.522 0.020 1.039-0.077 1.56-0.108 0.426-0.017 0.854-0.041 1.279 0.006 0.52 0.054 1.051 0.122 1.535 0.333 0.043-0.471 0.106-0.94 0.121-1.413-0.001-0.183 0.125-0.333 0.249-0.452zM15.132 1.077c-0.037 0.496-0.089 0.991-0.163 1.482 0.517 0.42 0.911 0.992 1.126 1.628 0.159 0.555 0.167 1.147 0.081 1.715 0.674 0.038 1.344 0.14 1.996 0.317-0.014-0.268-0.016-0.538 0.003-0.806 0.028-0.389 0.167-0.755 0.272-1.126 0.048-0.154 0.157-0.296 0.13-0.465-0.041-0.477-0.303-0.9-0.612-1.248-0.381-0.429-0.828-0.808-1.345-1.055-0.344-0.182-0.723-0.275-1.095-0.377-0.13-0.031-0.262-0.049-0.393-0.066zM20.732 2.544c-0.225 0.403-0.529 0.751-0.817 1.108-0.145 0.175-0.24 0.384-0.347 0.583-0.139 0.267-0.215 0.56-0.305 0.846-0.055 0.193-0.091 0.393-0.096 0.595-0.006 0.306-0.003 0.619 0.1 0.91 0.711 0.275 1.387 0.647 2.010 1.090 0.039-0.083 0.078-0.169 0.151-0.228 0.24-0.182 0.375-0.471 0.472-0.751 0.080-0.206-0.010-0.436 0.089-0.637 0.090-0.258 0.42-0.376 0.653-0.242 0.199 0.119 0.316 0.353 0.314 0.586 0.002 0.509-0.205 0.995-0.486 1.408-0.105 0.186-0.27 0.326-0.435 0.455 0.069 0.062 0.138 0.123 0.206 0.187 0.273-0.144 0.483-0.381 0.691-0.606 0.537-0.639 0.61-1.576 0.359-2.353-0.086-0.339-0.288-0.627-0.479-0.912-0.221-0.281-0.438-0.569-0.699-0.814-0.43-0.444-0.939-0.795-1.381-1.225zM9.96 2.764c0.124 0.443 0.146 0.905 0.194 1.36 0.027 0.312 0.141 0.606 0.24 0.9 0.145 0.309 0.288 0.623 0.489 0.899 0.255 0.304 0.533 0.602 0.89 0.783 0.115-0.054 0.237-0.108 0.367-0.090 0.253 0.020 0.465 0.261 0.455 0.519 0 0.206-0.136 0.399-0.325 0.472-0.433 0.182-0.849 0.402-1.249 0.651-0.17 0.111-0.404 0.116-0.57-0.005-0.21-0.14-0.282-0.448-0.156-0.669 0.090-0.177 0.287-0.244 0.441-0.349-0.244-0.218-0.469-0.458-0.676-0.714-0.257-0.366-0.451-0.772-0.631-1.18-0.049-0.089-0.135-0.149-0.212-0.21-0.41-0.275-0.91-0.354-1.392-0.368-0.586 0-1.18 0.090-1.721 0.327-0.403 0.162-0.765 0.41-1.124 0.654 0.314 0.386 0.625 0.776 0.92 1.177 0.857-0.090 1.767 0.124 2.438 0.69 0.283 0.247 0.541 0.525 0.763 0.83 0.103-0.105 0.234-0.197 0.386-0.198 0.256-0.021 0.502 0.19 0.527 0.45 0.025 0.18-0.059 0.357-0.192 0.473-0.72 0.649-1.34 1.415-1.818 2.264-0.334 0.592-0.585 1.23-0.797 1.876-0.236 0.851-0.384 1.735-0.362 2.622 0.011 0.554 0.039 1.112 0.157 1.655 0.126 0.689 0.352 1.355 0.621 1.999 0.123 0.265 0.268 0.52 0.409 0.776 0.598 1.092 1.451 2.035 2.45 2.763 0.398 0.307 0.83 0.563 1.277 0.788 0.254 0.13 0.513 0.256 0.788 0.332 0.809 0.349 1.686 0.517 2.562 0.553 0.206 0.018 0.412 0.045 0.619 0.040 0.306-0.017 0.612-0.041 0.917-0.068 0.823-0.064 1.626-0.295 2.389-0.607 0.113-0.041 0.186-0.151 0.301-0.189 0.1-0.033 0.21-0.037 0.303-0.092 1.050-0.541 2.003-1.287 2.755-2.21 0.598-0.693 1.061-1.497 1.418-2.343 0.058-0.118 0.016-0.256 0.065-0.376 0.037-0.113 0.146-0.183 0.179-0.298 0.106-0.339 0.193-0.683 0.27-1.029 0.060-0.347 0.102-0.697 0.134-1.047 0.017-0.204 0.044-0.409 0.032-0.614-0.024-0.643-0.047-1.29-0.191-1.919-0.109-0.561-0.289-1.104-0.497-1.634-0.038-0.109-0.137-0.178-0.187-0.28-0.049-0.095-0.037-0.21-0.090-0.303-0.958-1.95-2.654-3.515-4.658-4.294-0.211-0.034-0.387-0.164-0.593-0.214-1.116-0.348-2.301-0.473-3.464-0.358-0.344 0.032-0.618-0.35-0.505-0.677-0.173-0.035-0.335-0.145-0.403-0.315-0.064-0.131-0.022-0.278-0.024-0.416-0.022-0.253-0.108-0.496-0.22-0.721-0.072-0.154-0.234-0.232-0.314-0.379-0.134-0.188-0.109-0.474 0.066-0.627 0.155-0.151 0.399-0.142 0.589-0.075 0.263 0.134 0.435 0.392 0.578 0.644 0.218 0.474 0.383 1.008 0.275 1.535 0.096-0.009 0.192-0.016 0.288-0.022 0.105-0.443 0.109-0.912 0.001-1.354-0.097-0.34-0.291-0.64-0.512-0.909-0.307-0.338-0.695-0.59-1.111-0.765-0.438-0.14-0.897-0.192-1.353-0.229-0.251-0.015-0.501 0.001-0.752 0.010-0.487 0.013-0.967 0.118-1.456 0.108zM24.427 5.99c-0.018 0.047-0.002 0.101-0.002 0.151 0.041 0.334-0.009 0.67-0.065 0.999-0.043 0.252-0.144 0.489-0.238 0.724-0.258 0.538-0.684 0.974-1.144 1.338 0.45 0.505 0.84 1.062 1.186 1.644 0.342-0.395 0.744-0.748 1.214-0.976 0.202-0.11 0.409-0.209 0.616-0.307 0.251-0.206 0.372-0.528 0.456-0.834 0.199-0.947 0.070-1.964-0.361-2.829-0.157-0.289-0.323-0.573-0.509-0.843-0.382 0.314-0.763 0.629-1.153 0.932zM5.051 8.205c-0.239 0.135-0.471 0.288-0.685 0.461-0.186 0.165-0.389 0.309-0.56 0.492-0.193 0.213-0.396 0.416-0.578 0.639-0.235 0.295-0.463 0.597-0.728 0.866 0.425 0.247 0.789 0.584 1.172 0.891 0.329 0.233 0.695 0.411 1.079 0.529 0.576 0.195 1.215 0.252 1.798 0.057 0.28-0.712 0.64-1.39 1.075-2.016-0.072-0.025-0.146-0.046-0.208-0.091-0.101-0.072-0.156-0.193-0.26-0.263-0.178-0.123-0.369-0.229-0.574-0.299-0.2-0.073-0.421 0.014-0.615-0.085-0.263-0.093-0.376-0.447-0.228-0.683 0.115-0.171 0.311-0.295 0.519-0.289 0.422-0.035 0.827 0.126 1.19 0.329 0.281 0.168 0.563 0.363 0.724 0.66 0.066-0.073 0.133-0.146 0.198-0.219-0.076-0.096-0.127-0.209-0.209-0.3-0.211-0.248-0.438-0.491-0.718-0.662-0.343-0.19-0.732-0.288-1.122-0.3-0.438-0.002-0.873 0.099-1.271 0.282zM26.951 10.345c-0.264 0.072-0.529 0.149-0.778 0.266-0.239 0.131-0.493 0.237-0.712 0.4-0.303 0.244-0.594 0.52-0.784 0.866 0.306 0.719 0.532 1.473 0.67 2.244 0.090-0.029 0.183-0.047 0.277-0.032 0.217 0.030 0.432-0.036 0.633-0.114 0.147-0.057 0.3-0.123 0.404-0.248 0.131-0.167 0.349-0.279 0.563-0.242 0.208 0.037 0.377 0.237 0.372 0.453-0.003 0.128-0.028 0.262-0.1 0.37-0.141 0.21-0.35 0.361-0.564 0.488-0.455 0.223-0.962 0.385-1.471 0.308 0.006 0.095 0.011 0.19 0.017 0.285 0.422 0.107 0.874 0.096 1.295-0.012 0.782-0.254 1.381-0.933 1.65-1.708 0.112-0.41 0.17-0.834 0.201-1.258 0.052-0.767-0.090-1.526-0.116-2.29-0.507 0.146-1.039 0.142-1.557 0.224zM2.696 13.336c-0.342 0.273-0.64 0.603-0.89 0.963-0.166 0.219-0.275 0.475-0.395 0.721-0.166 0.427-0.298 0.873-0.35 1.331 0.487 0.040 0.974 0.093 1.457 0.166 0.049-0.053 0.096-0.108 0.141-0.164 0.197-0.244 0.455-0.426 0.706-0.608 0.236-0.168 0.509-0.271 0.775-0.377 0.553-0.161 1.139-0.152 1.705-0.076 0.038-0.684 0.156-1.361 0.323-2.024-0.287 0.025-0.576 0.010-0.863-0.010-0.397-0.042-0.781-0.162-1.154-0.3-0.135-0.044-0.265-0.135-0.413-0.105-0.386 0.045-0.746 0.233-1.043 0.483zM27.118 16.344c-0.527 0.165-1.092 0.166-1.635 0.099-0.055 0.676-0.131 1.355-0.32 2.009 0.339-0.004 0.681-0.019 1.015 0.047 0.269 0.045 0.522 0.15 0.784 0.222 0.134 0.038 0.255 0.117 0.39 0.151 0.35 0.005 0.69-0.137 0.978-0.332 0.409-0.285 0.758-0.651 1.053-1.055 0.231-0.309 0.392-0.664 0.533-1.022 0.112-0.357 0.201-0.721 0.267-1.089-0.492-0.043-0.984-0.093-1.473-0.169-0.408 0.525-0.971 0.922-1.593 1.14zM3.958 16.576c-0.208 0.152-0.43 0.296-0.583 0.509-0.177 0.182-0.305 0.403-0.419 0.63-0.136 0.223-0.188 0.483-0.242 0.736-0.088 0.502-0.137 1.013-0.11 1.524 0.012 0.543 0.119 1.079 0.119 1.622 0.473-0.124 0.963-0.144 1.446-0.202 0.401-0.081 0.794-0.215 1.153-0.415 0.234-0.129 0.473-0.259 0.664-0.451 0.235-0.223 0.472-0.458 0.608-0.76 0.003-0.047-0.023-0.089-0.036-0.132-0.273-0.67-0.466-1.373-0.591-2.088-0.109 0.061-0.233 0.103-0.359 0.080-0.182-0.033-0.359 0.033-0.532 0.078-0.191 0.067-0.395 0.143-0.526 0.308-0.107 0.12-0.25 0.226-0.415 0.234-0.224 0.023-0.444-0.149-0.484-0.372-0.021-0.173-0.003-0.365 0.111-0.504 0.247-0.327 0.626-0.513 1.002-0.642 0.354-0.107 0.737-0.193 1.102-0.086-0.008-0.099-0.013-0.199-0.019-0.298-0.627-0.146-1.329-0.13-1.888 0.229zM24.812 19.547c-0.292 0.731-0.661 1.43-1.102 2.079 0.142 0.058 0.223 0.192 0.329 0.295 0.191 0.149 0.408 0.267 0.64 0.336 0.181 0.059 0.378-0.016 0.554 0.066 0.254 0.072 0.394 0.383 0.291 0.628-0.104 0.236-0.365 0.372-0.613 0.365s-0.501-0.046-0.729-0.149c-0.41-0.163-0.808-0.404-1.075-0.768-0.059 0.069-0.118 0.137-0.179 0.205 0.064 0.168 0.193 0.294 0.309 0.425 0.235 0.246 0.497 0.484 0.823 0.595 0.235 0.112 0.497 0.138 0.751 0.171 0.592 0.017 1.206-0.122 1.692-0.479 0.631-0.414 1.163-0.965 1.635-1.555 0.19-0.242 0.383-0.482 0.592-0.708-0.436-0.241-0.797-0.594-1.187-0.901-0.321-0.213-0.667-0.393-1.037-0.501-0.264-0.088-0.533-0.173-0.813-0.183-0.294-0.009-0.595-0.010-0.879 0.077zM6.185 21.66c-0.268 0.169-0.546 0.321-0.838 0.442-0.058 0.026-0.119 0.049-0.163 0.097-0.19 0.193-0.296 0.451-0.379 0.707-0.174 0.659-0.135 1.357 0.007 2.019 0.152 0.638 0.478 1.213 0.846 1.746 0.156-0.154 0.332-0.285 0.5-0.424 0.216-0.173 0.425-0.357 0.656-0.51-0.052-0.577 0.001-1.176 0.23-1.711 0.235-0.634 0.725-1.133 1.249-1.532-0.441-0.519-0.845-1.072-1.164-1.677-0.289 0.308-0.579 0.628-0.944 0.845zM8.313 23.854c-0.159 0.184-0.283 0.396-0.362 0.627-0.211 0.574-0.189 1.22 0.007 1.794 0.094 0.331 0.29 0.619 0.487 0.895 0.266 0.357 0.558 0.694 0.888 0.992 0.37 0.36 0.797 0.651 1.164 1.014 0.193-0.332 0.432-0.632 0.673-0.93 0.469-0.529 0.728-1.214 0.864-1.904 0.050-0.404 0.063-0.829-0.072-1.218-0.153-0.063-0.306-0.123-0.454-0.198-0.538-0.266-1.068-0.557-1.546-0.925-0.032 0.084-0.062 0.172-0.127 0.237-0.077 0.077-0.171 0.139-0.23 0.233-0.125 0.201-0.251 0.41-0.3 0.646-0.037 0.162 0.020 0.335-0.047 0.492-0.051 0.189-0.226 0.34-0.421 0.344-0.303 0.026-0.547-0.28-0.552-0.57-0.033-0.36 0.071-0.712 0.22-1.034 0.18-0.349 0.389-0.703 0.725-0.919-0.067-0.063-0.135-0.126-0.202-0.188-0.278 0.151-0.503 0.378-0.715 0.611zM20.556 24.54c0.323 0.3 0.627 0.63 0.844 1.019 0.131 0.247 0.274 0.49 0.369 0.755 0.029 0.093 0.102 0.159 0.174 0.219 0.366 0.298 0.845 0.382 1.301 0.417 0.739 0.038 1.491-0.102 2.154-0.442 0.294-0.162 0.588-0.328 0.854-0.535-0.318-0.381-0.623-0.776-0.924-1.171-0.151-0.004-0.301 0.029-0.452 0.021-0.534-0.017-1.068-0.143-1.539-0.403-0.457-0.263-0.832-0.651-1.156-1.066-0.501 0.449-1.047 0.846-1.626 1.186zM17.313 25.716c0.073 0.144 0.042 0.303 0.036 0.457 0.045 0.294 0.123 0.596 0.3 0.839 0.151 0.137 0.311 0.304 0.319 0.523 0.020 0.238-0.17 0.466-0.403 0.49-0.161 0.009-0.334-0.023-0.462-0.128-0.261-0.202-0.434-0.496-0.553-0.802-0.154-0.404-0.266-0.847-0.18-1.28-0.095 0.008-0.189 0.015-0.284 0.023-0.104 0.446-0.105 0.921 0.011 1.364 0.253 0.793 0.925 1.403 1.691 1.668 0.626 0.174 1.279 0.234 1.927 0.203 0.52-0.018 1.035-0.108 1.555-0.116-0.135-0.474-0.145-0.971-0.203-1.458-0.087-0.469-0.254-0.922-0.493-1.332-0.169-0.342-0.431-0.624-0.71-0.876-0.11-0.080-0.215-0.186-0.347-0.22-0.712 0.285-1.445 0.528-2.204 0.646zM13.066 25.507c0.008 0.189 0.015 0.379 0.002 0.569-0.009 0.577-0.197 1.13-0.399 1.663-0.045 0.163 0.004 0.335 0.050 0.493 0.146 0.483 0.485 0.87 0.831 1.218 0.294 0.271 0.607 0.53 0.97 0.702 0.487 0.27 1.034 0.401 1.576 0.499 0.042-0.498 0.093-0.995 0.164-1.49-0.315-0.247-0.566-0.565-0.786-0.899-0.275-0.445-0.448-0.959-0.463-1.487-0.023-0.315-0-0.632 0.040-0.944-0.669-0.055-1.339-0.136-1.986-0.323z"></path>
<path d="M16.476 1.574l0 0 0.003-0.002c0.101-0.053 0.218-0.027 0.323 0.077s0.185 0.279 0.191 0.486h-0l0 0.005c0.017 0.19-0.032 0.376-0.115 0.511-0.085 0.138-0.192 0.203-0.287 0.195l-0.005-0-0.005 0c-0.086 0.004-0.183-0.052-0.264-0.169-0.079-0.115-0.132-0.276-0.132-0.449h0l-0-0.004c-0.008-0.148 0.023-0.292 0.079-0.41 0.056-0.119 0.133-0.203 0.212-0.24z"></path>
<path d="M17.678 3.040l-0 0 0.006 0.002c0.072 0.024 0.135 0.067 0.199 0.121 0.030 0.025 0.059 0.052 0.090 0.080 0.002 0.002 0.004 0.004 0.006 0.006 0.031 0.029 0.065 0.059 0.099 0.088 0.031 0.030 0.062 0.060 0.093 0.089 0.003 0.002 0.005 0.005 0.008 0.007 0.035 0.032 0.068 0.063 0.099 0.096 0.062 0.063 0.113 0.126 0.146 0.198 0.055 0.164 0.058 0.338-0.044 0.45l-0-0-0.003 0.004c-0.122 0.151-0.38 0.175-0.531 0.049l0-0-0.005-0.004c-0.030-0.021-0.053-0.050-0.075-0.087-0.015-0.026-0.028-0.051-0.041-0.080-0.007-0.015-0.015-0.031-0.024-0.049l-0.004-0.008-0.005-0.007c-0.048-0.060-0.104-0.112-0.16-0.161-0.023-0.020-0.045-0.039-0.067-0.057-0.033-0.028-0.065-0.055-0.097-0.084-0.103-0.093-0.177-0.184-0.198-0.303l0-0-0.002-0.007c-0.038-0.144 0.041-0.305 0.183-0.351 0.11-0.031 0.228-0.033 0.326 0.007z"></path>
<path d="M12.6 3.020l0 0 0.003-0.001c0.114-0.028 0.237 0.005 0.333 0.079s0.157 0.182 0.156 0.299h-0l0.001 0.007c0.018 0.213-0.176 0.421-0.39 0.417v-0l-0.007 0.001c-0.214 0.016-0.418-0.179-0.414-0.391h0l-0-0.007c-0.012-0.185 0.134-0.367 0.319-0.404z"></path>
<path d="M22.331 4.491l0 0 0.003-0.001c0.117-0.038 0.247-0.010 0.349 0.063s0.169 0.186 0.168 0.308h-0l0.001 0.007c0.018 0.216-0.181 0.425-0.399 0.417v-0l-0.007 0c-0.211 0.010-0.409-0.181-0.405-0.391h0l-0-0.007c-0.011-0.176 0.118-0.35 0.291-0.398z"></path>
<path d="M8.639 5.452h0.001c0.158 0.004 0.306 0.076 0.43 0.175 0.147 0.125 0.16 0.35 0.033 0.489v-0l-0.002 0.002c-0.098 0.114-0.28 0.171-0.443 0.133-0.163-0.069-0.333-0.061-0.486-0.050-0.015 0.001-0.029 0.002-0.043 0.003-0.144 0.011-0.271 0.021-0.394-0.011l-0-0c-0.088-0.023-0.175-0.066-0.238-0.124s-0.096-0.122-0.095-0.192h0l-0-0.003c-0.002-0.095 0.045-0.186 0.128-0.26s0.197-0.125 0.313-0.14c0.265-0.022 0.532-0.032 0.798-0.023z"></path>
<path d="M6.382 5.471v0l0.002-0c0.195-0.045 0.409-0.017 0.576 0.057 0.171 0.076 0.267 0.187 0.274 0.293l0 0.005 0.001 0.005c0.018 0.094-0.034 0.202-0.158 0.291-0.122 0.088-0.301 0.147-0.492 0.14v-0l-0.005 0c-0.173 0.004-0.337-0.045-0.457-0.122-0.122-0.078-0.183-0.175-0.184-0.262v-0.005l-0.001-0.005c-0.009-0.075 0.025-0.157 0.105-0.232s0.198-0.136 0.339-0.165z"></path>
<path d="M13.441 5.96v0l0.001-0.001c0.188-0.067 0.414 0.018 0.534 0.226l-0 0 0.001 0.002c0.070 0.115 0.101 0.264 0.089 0.411s-0.064 0.285-0.15 0.381h-0l-0.002 0.002c-0.063 0.076-0.143 0.119-0.235 0.151-0.047 0.016-0.095 0.030-0.147 0.043-0.004 0.001-0.008 0.002-0.011 0.003-0.047 0.012-0.096 0.026-0.144 0.041-0.184 0.057-0.401-0.029-0.516-0.231h0l-0.001-0.002c-0.071-0.115-0.101-0.264-0.089-0.41s0.065-0.285 0.151-0.38h0l0.002-0.002c0.061-0.073 0.137-0.115 0.226-0.147 0.045-0.016 0.092-0.029 0.141-0.043 0.004-0.001 0.008-0.002 0.012-0.003 0.045-0.012 0.092-0.025 0.138-0.041z"></path>
<path d="M25.77 5.956l0 0 0.004-0.002c0.101-0.042 0.218-0.007 0.319 0.107s0.174 0.293 0.173 0.499h-0l0 0.005c0.010 0.184-0.041 0.362-0.123 0.488-0.084 0.129-0.188 0.191-0.28 0.184l-0.005-0-0.005 0c-0.088 0.005-0.187-0.053-0.268-0.173-0.080-0.118-0.133-0.283-0.13-0.458h0l-0-0.004c-0.006-0.153 0.029-0.301 0.090-0.419 0.061-0.119 0.143-0.198 0.225-0.227z"></path>
<path d="M25.853 9.189v-0l-0.005 0c-0.1 0.008-0.199-0.025-0.273-0.080s-0.116-0.13-0.118-0.2l-0-0.005-0.001-0.005c-0.004-0.024 0.001-0.050 0.013-0.085 0.006-0.017 0.013-0.034 0.022-0.054l0.001-0.002c0.008-0.020 0.018-0.042 0.026-0.065l0.003-0.010 0.001-0.010c0.006-0.082-0-0.167-0.006-0.244-0.002-0.022-0.003-0.044-0.005-0.065-0.006-0.095-0.005-0.18 0.020-0.26 0.040-0.083 0.114-0.159 0.212-0.194 0.12-0.040 0.241-0.011 0.337 0.057 0.097 0.069 0.16 0.171 0.17 0.263 0.002 0.059 0.005 0.116 0.009 0.172 0.009 0.155 0.017 0.301-0.004 0.448-0.040 0.168-0.193 0.337-0.403 0.342z"></path>
<path d="M4.611 8.873l0 0 0.005-0.003c0.013-0.007 0.023-0.007 0.036-0.001 0.016 0.007 0.039 0.026 0.063 0.061 0.047 0.071 0.084 0.188 0.083 0.325h-0l0 0.004c0.005 0.121-0.021 0.237-0.060 0.318-0.020 0.041-0.041 0.069-0.060 0.085s-0.030 0.017-0.036 0.017l-0.007-0.001-0.007 0c-0.005 0-0.017-0.001-0.034-0.016s-0.038-0.041-0.058-0.078c-0.038-0.075-0.064-0.182-0.063-0.298h0l-0-0.003c-0.003-0.101 0.014-0.199 0.044-0.275 0.031-0.080 0.069-0.122 0.094-0.134z"></path>
<path d="M27.68 12.779v0l0.002-0c0.129-0.022 0.271-0.008 0.379 0.029 0.054 0.018 0.096 0.041 0.123 0.064s0.033 0.040 0.033 0.047l0 0.007 0.002 0.007c0.001 0.006 0.002 0.016-0.011 0.033-0.013 0.018-0.037 0.040-0.076 0.061-0.076 0.041-0.19 0.070-0.314 0.068v-0l-0.003 0c-0.12 0.003-0.232-0.023-0.311-0.062-0.039-0.020-0.066-0.040-0.082-0.059s-0.016-0.029-0.016-0.034l0.001-0.006-0-0.006c-0-0.008 0.006-0.036 0.058-0.071 0.049-0.033 0.125-0.062 0.214-0.075z"></path>
<path d="M2.040 14.447l0.062-0.053c-0.079-0.092-0.086-0.192-0.044-0.291 0.044-0.104 0.145-0.209 0.286-0.289v0l0.002-0.001c0.087-0.052 0.169-0.108 0.249-0.163 0.266-0.18 0.521-0.353 0.91-0.382l0 0 0.006-0.001c0.198-0.030 0.404 0.006 0.559 0.080 0.16 0.077 0.238 0.179 0.237 0.267l-0 0.006 0.001 0.006c0.009 0.066-0.023 0.14-0.106 0.211s-0.207 0.129-0.352 0.159l-0.007 0.002-0.007 0.003c-0.169 0.069-0.303 0.164-0.43 0.253-0.010 0.007-0.020 0.014-0.030 0.021-0.137 0.095-0.269 0.183-0.44 0.242-0.142 0.040-0.318 0.053-0.477 0.032-0.163-0.021-0.291-0.075-0.357-0.153l-0.062 0.053zM2.040 14.447c0.171 0.201 0.612 0.233 0.92 0.146l0.539-1.407c-0.413 0.031-0.691 0.219-0.96 0.402-0.078 0.053-0.156 0.106-0.236 0.154-0.302 0.172-0.464 0.468-0.263 0.704z"></path>
<path d="M2.007 14.75l0 0 0.003-0.001c0.185-0.061 0.389-0.021 0.55 0.088s0.273 0.282 0.281 0.476h-0l0.001 0.007c0.046 0.359-0.277 0.714-0.639 0.7v-0l-0.007 0c-0.335 0.016-0.65-0.284-0.649-0.619h0l-0-0.006c-0.021-0.285 0.184-0.566 0.46-0.645z"></path>
<path d="M28.872 16.198v0l0.002-0c0.197-0.036 0.405 0 0.563 0.079 0.162 0.081 0.246 0.192 0.245 0.295l-0 0.005 0.001 0.005c0.012 0.091-0.044 0.195-0.169 0.281-0.122 0.084-0.297 0.139-0.482 0.133v-0l-0.005 0c-0.175 0.004-0.342-0.046-0.463-0.125-0.123-0.080-0.183-0.178-0.18-0.265l0-0.005-0-0.005c-0.007-0.077 0.032-0.163 0.12-0.239s0.218-0.136 0.367-0.159z"></path>
<path d="M29.194 17.489h-0l0.001 0.004c0.010 0.061-0.012 0.126-0.068 0.197s-0.139 0.139-0.233 0.2v0l-0 0c-0.059 0.039-0.117 0.079-0.174 0.118-0.207 0.142-0.408 0.28-0.66 0.382-0.168 0.056-0.376 0.081-0.57 0.065-0.197-0.016-0.366-0.073-0.466-0.169l0-0-0.004-0.004c-0.059-0.050-0.088-0.102-0.097-0.151s-0-0.103 0.029-0.156c0.059-0.108 0.202-0.212 0.414-0.25l0.008-0.002 0.008-0.003c0.163-0.067 0.296-0.161 0.419-0.249 0.026-0.018 0.051-0.036 0.076-0.053 0.148-0.103 0.297-0.192 0.505-0.235 0.202-0.036 0.425-0.038 0.586 0.034 0.148 0.066 0.214 0.175 0.225 0.272z"></path>
<path d="M3.263 18.166l0 0 0.003-0.001c0.114-0.050 0.247-0.034 0.356 0.030s0.186 0.172 0.196 0.295l-0 0 0.001 0.006c0.034 0.221-0.155 0.447-0.377 0.451v-0l-0.006 0.001c-0.21 0.020-0.417-0.162-0.424-0.372l0-0-0.001-0.006c-0.017-0.168 0.092-0.34 0.252-0.403z"></path>
<path d="M26.564 22.051l0 0 0.004-0.003c0.015-0.010 0.025-0.010 0.036-0.006 0.015 0.005 0.036 0.020 0.060 0.052 0.047 0.064 0.087 0.176 0.090 0.313h-0l0 0.003c0.008 0.124-0.016 0.246-0.055 0.332-0.020 0.043-0.042 0.074-0.061 0.092s-0.032 0.019-0.037 0.019l-0.007-0.001-0.007 0.001c-0.005 0-0.016-0.001-0.033-0.015s-0.038-0.039-0.057-0.076c-0.038-0.073-0.065-0.18-0.065-0.295h0l-0-0.003c-0.004-0.099 0.012-0.195 0.040-0.272 0.029-0.080 0.065-0.126 0.092-0.141z"></path>
<path d="M5.259 22.55v0l0.002-0.001c0.086-0.029 0.185-0.028 0.273-0.001s0.16 0.079 0.199 0.142l-0 0 0.003 0.004c0.058 0.084 0.048 0.195-0.012 0.302l-0.007 0.013-0.002 0.015c-0.013 0.095-0.004 0.192 0.004 0.278 0.002 0.019 0.003 0.037 0.005 0.054 0.008 0.102 0.008 0.189-0.026 0.271-0.045 0.093-0.134 0.175-0.249 0.198-0.083 0.013-0.172-0.002-0.248-0.038s-0.135-0.090-0.163-0.149l0-0-0.003-0.005c-0.034-0.059-0.048-0.124-0.055-0.197-0.003-0.037-0.005-0.075-0.006-0.115-0-0.003-0-0.006-0-0.009-0.001-0.036-0.003-0.074-0.006-0.111-0-0.029-0.002-0.057-0.003-0.083-0.002-0.047-0.003-0.091-0.002-0.137 0.002-0.069 0.012-0.131 0.037-0.188 0.061-0.11 0.14-0.205 0.26-0.242z"></path>
<path d="M5.249 24.986l0 0 0.003-0.001c0.113-0.037 0.239-0.013 0.34 0.054s0.171 0.173 0.178 0.291l-0 0 0.001 0.006c0.032 0.225-0.17 0.452-0.397 0.444v-0l-0.007 0c-0.21 0.010-0.408-0.181-0.405-0.39h0l-0-0.006c-0.011-0.175 0.117-0.348 0.288-0.398z"></path>
<path d="M24.477 25.47v0l0.002-0c0.197-0.037 0.407-0.001 0.565 0.078 0.163 0.081 0.247 0.193 0.246 0.296l-0 0.005 0.001 0.005c0.011 0.091-0.044 0.195-0.169 0.281-0.123 0.084-0.298 0.139-0.483 0.133v-0l-0.005 0c-0.175 0.004-0.343-0.047-0.463-0.125-0.123-0.080-0.182-0.178-0.179-0.265l0-0.005-0-0.005c-0.007-0.077 0.032-0.162 0.12-0.238s0.216-0.136 0.365-0.159z"></path>
<path d="M23.902 25.931v0 0zM23.902 25.931c-0.050 0.219-0.281 0.367-0.518 0.399-0.045 0.002-0.090 0.004-0.135 0.006-0.231 0.011-0.462 0.021-0.693 0.006l1.346-0.412zM22.356 25.467v0l0.001-0c0.049-0.011 0.104-0.013 0.163-0.009v0l0.002 0c0.036 0.001 0.071 0.014 0.121 0.031l0.002 0c0.046 0.016 0.107 0.038 0.176 0.036 0.079-0 0.161-0.005 0.239-0.009 0.040-0.002 0.080-0.004 0.118-0.006 0.116-0.005 0.227-0.004 0.335 0.015 0.097 0.024 0.186 0.080 0.245 0.153s0.083 0.155 0.065 0.234l-0 0.001c-0.040 0.172-0.229 0.306-0.446 0.336-0.044 0.002-0.088 0.004-0.132 0.006-0.23 0.011-0.456 0.021-0.681 0.007-0.226-0.024-0.442-0.152-0.505-0.328-0.066-0.185 0.067-0.417 0.3-0.467z"></path>
<path d="M8.66 26.451h0l0.003-0.001c0.114-0.040 0.243-0.016 0.346 0.052s0.173 0.176 0.178 0.296h-0l0.001 0.007c0.028 0.216-0.16 0.434-0.378 0.437l-0-0-0.007 0.001c-0.214 0.021-0.424-0.17-0.424-0.384h0l-0.001-0.006c-0.014-0.175 0.111-0.349 0.282-0.402z"></path>
<path d="M13.399 27.541l-0 0 0.003 0.004c0.025 0.028 0.045 0.066 0.065 0.113 0.010 0.023 0.019 0.047 0.029 0.073l0 0c0.010 0.025 0.020 0.052 0.031 0.078l0.003 0.006 0.004 0.006c0.064 0.101 0.142 0.19 0.215 0.273 0.023 0.026 0.045 0.051 0.066 0.075 0.091 0.108 0.17 0.215 0.218 0.353 0.053 0.173 0.056 0.376-0.026 0.511-0.092 0.142-0.249 0.188-0.383 0.152-0.090-0.033-0.17-0.098-0.251-0.185-0.052-0.055-0.098-0.113-0.146-0.173-0.030-0.037-0.060-0.075-0.093-0.113-0.026-0.034-0.057-0.070-0.086-0.103-0.019-0.022-0.038-0.044-0.054-0.064-0.044-0.054-0.082-0.108-0.111-0.17h0l-0.002-0.003c-0.076-0.145-0.117-0.322-0.112-0.498 0.006-0.211 0.127-0.39 0.264-0.447 0.123-0.049 0.269-0.013 0.367 0.113z"></path>
<path d="M18.447 27.916l0 0 0.004-0.002c0.101-0.044 0.218-0.010 0.321 0.102s0.176 0.292 0.176 0.499h-0l0 0.005c0.010 0.178-0.037 0.351-0.115 0.478-0.079 0.13-0.179 0.196-0.269 0.196l-0.005 0-0.005 0.001c-0.090 0.012-0.192-0.040-0.278-0.159-0.084-0.117-0.141-0.285-0.139-0.465h0l-0-0.005c-0.007-0.152 0.027-0.301 0.087-0.419 0.060-0.12 0.142-0.2 0.223-0.23z"></path>
<path d="M14.523 29.377v0l0.003-0.001c0.117-0.038 0.248-0.010 0.35 0.063s0.169 0.186 0.168 0.309h-0l0.001 0.007c0.017 0.216-0.182 0.424-0.399 0.416v-0l-0.007 0c-0.211 0.010-0.409-0.182-0.405-0.392h0l-0-0.006c-0.011-0.175 0.118-0.348 0.29-0.397z"></path>
</symbol>
<symbol id="icon-product-6" viewBox="0 0 36 32">
<path d="M10.747 27.94c-0.977-0.034-1.871-0.392-2.627-1.070-1.54-1.383-1.619-2.882-1.413-3.896 0.432-2.13 2.543-4.227 5.135-5.099 3.473-1.169 4.92-5.622 4.934-5.667l0.763 0.248c-0.063 0.199-1.591 4.892-5.446 6.19-2.295 0.773-4.231 2.662-4.602 4.492-0.237 1.17 0.154 2.222 1.16 3.125 1.425 1.28 3.104 0.917 4.257 0.388 3.438-1.574 7.144-6.912 7.138-12.789l0.801-0.002c0.007 6.202-3.944 11.852-7.609 13.53-0.863 0.396-1.705 0.578-2.491 0.551z"></path>
<path d="M21.409 14.425l-0.323-0.043c-3.262-0.428-4.864-2.31-4.93-2.39l-0.132-0.159 0.049-0.202c0.19-0.769 0.821-1.031 1.357-1.020 0.678-0.41 1.293-0.608 1.829-0.589 1.703 0.060 2.014 2.096 2.067 2.683 0.369 0.467 0.3 1.090 0.192 1.407l-0.108 0.312zM16.931 11.637c0.432 0.42 1.72 1.499 3.87 1.881-0.007-0.121-0.041-0.252-0.14-0.347l-0.118-0.114-0.007-0.165c-0.001-0.020-0.098-2.015-1.306-2.058-0.403-0.014-0.904 0.166-1.489 0.536l-0.127 0.080-0.148-0.023-0.003-0c-0.307-0.011-0.458 0.098-0.534 0.21z"></path>
<path d="M20.095 10.556l-0.798-0.063c0.008-0.133 0.144-1.335 2.263-2.585l0.403 0.702c-1.741 1.026-1.867 1.937-1.868 1.946z"></path>
<path d="M23.634 31.62l-2.167-0.076 1.099-31.377 2.167 0.076-1.099 31.377zM22.296 30.761l0.566 0.020 1.042-29.754-0.566-0.020-1.042 29.754z"></path>
<path d="M22.228 10.033c-0.009-0.050-0.226-1.245-1.555-2.082-1.677-1.057-4.412-1.062-7.908-0.016l-0.226-0.779c3.792-1.135 6.681-1.094 8.583 0.119 1.63 1.040 1.887 2.56 1.898 2.624l-0.395 0.065-0.396 0.067z"></path>
<path d="M2.378 14.105c-1.097-0.038-1.809-0.386-2.115-1.035-0.589-1.248 0.677-3.067 0.937-3.419 2.331-2.851 6.139-6.193 11.11-6.019 2.672 0.094 5.409 1.202 8.135 3.295l0.236 0.182-0.104 0.282c-0.078 0.212-0.878 2.040-5.381 2.192-0.373 1.039-1.955 4.38-6.842 4.355-1.811-0.009-3.657 0.046-5.487 0.164-0.182 0.007-0.341 0.008-0.49 0.002zM12.281 4.444c-4.645-0.163-8.248 3.015-10.453 5.71-0.426 0.576-1.168 1.879-0.843 2.566 0.195 0.414 0.801 0.611 1.842 0.573 1.839-0.119 3.704-0.175 5.532-0.166 5.128 0.026 6.145-3.996 6.155-4.036l0.073-0.306 0.31-0.005c3.188-0.054 4.372-0.978 4.762-1.431-2.49-1.843-4.972-2.82-7.378-2.904z"></path>
<path d="M22.015 19.467c-0.645-0.661-0.945-1.36-0.89-2.077 0.086-1.113 1.014-1.818 1.054-1.847 1.6-1.127 2.429-2.209 2.405-3.136-0.023-0.876-0.819-1.387-0.826-1.392l0.417-0.693c0.047 0.029 1.17 0.734 1.21 2.052 0.037 1.234-0.885 2.522-2.741 3.829 0 0-0.666 0.517-0.72 1.255-0.035 0.47 0.188 0.953 0.66 1.437l-0.569 0.572z"></path>
<path d="M21.688 28.819c-0.645-0.66-0.945-1.359-0.89-2.076 0.086-1.113 1.014-1.818 1.054-1.848 1.6-1.127 2.429-2.209 2.405-3.136-0.021-0.876-0.819-1.388-0.826-1.393l0.417-0.693c0.047 0.030 1.17 0.735 1.21 2.053 0.036 1.234-0.885 2.522-2.741 3.829 0 0-0.667 0.517-0.72 1.255-0.035 0.469 0.188 0.953 0.66 1.436l-0.569 0.572z"></path>
<path d="M24.446 7.738l-0.742-0.303c0.053-0.132 1.325-3.225 5.154-4.124l0.18 0.791c-3.429 0.804-4.581 3.607-4.592 3.635z"></path>
<path d="M25.307 12.835l-0.659-0.46c0.068-0.1 1.687-2.446 4.818-1.992l-0.114 0.804c-2.615-0.378-3.987 1.565-4.045 1.648z"></path>
<path d="M34.32 14.594l-0.030-0.081c-0.387-0.885-2.396-1.266-4.149-1.327-0.218-0.008-0.35-0.007-0.355-0.007-0.271 0.046-0.591 0.065-0.894 0.055-2.127-0.075-2.908-1.58-2.94-1.644l-0.129-0.256 0.197-0.209c1.302-1.383 2.609-2.061 3.884-2.017 3.040 0.107 4.799 4.249 5.129 5.097 0.016 0.040 0.031 0.081 0.046 0.122l-0.757 0.268zM30.17 12.374c0.943 0.033 2.313 0.161 3.378 0.587-0.746-1.317-2.012-2.984-3.672-3.042-0.968-0.034-1.994 0.482-3.052 1.534 0.27 0.338 0.908 0.927 2.097 0.969 0.255 0.009 0.524-0.008 0.804-0.050 0.057-0.004 0.202-0.006 0.445 0.003z"></path>
<path d="M11.121 25.67l-0.315-0.746c0.399-0.173 0.783-0.36 1.144-0.558l0.38 0.715c-0.381 0.208-0.789 0.407-1.209 0.589z"></path>
<path d="M13.978 24.028l-0.474-0.654c4.208-3.126 4.815-7.638 4.821-7.683l0.795 0.101c-0.026 0.199-0.659 4.906-5.143 8.237z"></path>
</symbol>
<symbol id="icon-product-5" viewBox="0 0 27 32">
<path d="M24.559 23.747c0.49 0.299 0.978 0.781 1.204 1.562 0.023 0.081 0.070 0.147 0.13 0.196 0.097 0.078 0.23 0.108 0.358 0.069 0.209-0.063 0.33-0.284 0.269-0.493-0.483-1.668-1.852-2.27-2.647-2.483 0.241-0.496 0.508-1.326 0.396-2.459-0.258-2.616-2.321-5.443-6.131-8.39-8.774-6.799-8.73-9.99-8.304-11.048 0.082-0.203-0.016-0.434-0.217-0.513s-0.432 0.021-0.514 0.224c-0.492 1.221-0.395 3.765 4.239 8.27-1.346-0.288-3.163-0.223-4.788 1.362-0.226-0.481-0.746-1.079-1.897-1.665-0.193-0.099-0.432-0.020-0.532 0.175s-0.027 0.434 0.168 0.531c0.651 0.332 1.042 0.647 1.278 0.915-2.065-0.983-4.627-0.447-6.132 1.434-1.752 2.19-1.417 5.38 0.748 7.112 1.232 0.986 2.793 1.287 4.235 0.963-0.001 1.477 0.636 2.935 1.868 3.921 2.164 1.732 5.351 1.36 7.103-0.829 1.336-1.669 1.455-3.919 0.48-5.662 0.251 0.196 0.498 0.437 0.714 0.738 0.125 0.175 0.373 0.216 0.55 0.087s0.219-0.376 0.093-0.553c-0.68-0.952-1.598-1.419-2.184-1.635 0.452-0.562 1.367-1.502 2.558-1.708 0.905-0.156 1.834 0.141 2.752 0.89 2.293 2.342 2.994 4.187 3.126 5.431 0.092 0.87-0.075 1.515-0.246 1.922-0.55-0.803-1.657-2.113-2.961-1.976-0.217 0.023-0.376 0.218-0.356 0.435 0.021 0.218 0.213 0.375 0.43 0.352 0.527-0.056 1.076 0.321 1.538 0.793-1.933-0.61-4.142-0.008-5.495 1.683-1.752 2.19-1.417 5.38 0.747 7.112s5.352 1.36 7.104-0.829c1.407-1.758 1.466-4.159 0.316-5.934zM2.685 17.924c-1.826-1.462-2.109-4.154-0.631-6.001 1.011-1.264 2.589-1.809 4.069-1.56-0.488 0.184-0.957 0.543-1.33 1.174-0.101 0.172-0.060 0.389 0.090 0.509 0.015 0.012 0.030 0.022 0.047 0.032 0.187 0.11 0.429 0.046 0.541-0.143 0.093-0.157 0.936-1.475 2.506-0.733 0.136 0.43 0.469 1.809-0.457 2.785-0.151 0.159-0.146 0.41 0.011 0.559 0.008 0.008 0.017 0.015 0.026 0.022 0.157 0.126 0.389 0.111 0.532-0.040 0.695-0.732 0.863-1.603 0.847-2.324 0.499 0.766 0.729 1.67 0.678 2.57-0.785 0.319-1.503 0.834-2.071 1.542s-0.912 1.523-1.051 2.358c-1.279 0.365-2.701 0.136-3.808-0.75zM14.782 22.109c-1.479 1.847-4.167 2.161-5.994 0.7s-2.109-4.154-0.631-6.001c0.938-1.172 2.363-1.725 3.747-1.601-0.342 0.113-0.663 0.307-0.918 0.626-0.137 0.171-0.111 0.42 0.059 0.555s0.418 0.107 0.555-0.065c0.596-0.744 1.953-0.392 2.455-0.229 0.076 0.468 0.197 1.664-0.366 2.542-0.11 0.172-0.072 0.397 0.083 0.521 0.011 0.009 0.022 0.017 0.034 0.025 0.183 0.117 0.427 0.061 0.546-0.123 0.443-0.691 0.556-1.504 0.557-2.158 1.11 1.514 1.114 3.657-0.127 5.207zM17.475 13.089c-1.369 0.238-2.393 1.216-2.947 1.878-0.274-0.634-0.788-1.488-1.638-1.745-0.208-0.063-0.429 0.055-0.494 0.264s0.050 0.429 0.258 0.493c0.388 0.118 0.696 0.474 0.923 0.86-1.003-0.45-2.115-0.551-3.164-0.315 0-1.101-0.354-2.191-1.045-3.083 0.395 0.133 0.803 0.388 1.024 0.879 0.090 0.198 0.323 0.284 0.522 0.192s0.287-0.327 0.198-0.525c-0.434-0.962-1.303-1.302-1.968-1.417 2.543-2.425 5.556-0.58 5.762-0.449 0.81 0.71 1.719 1.461 2.747 2.258 0.302 0.234 0.586 0.464 0.859 0.691-0.346-0.041-0.692-0.038-1.038 0.022zM17.636 29.89c-1.827-1.462-2.109-4.154-0.631-6.001 1.069-1.335 2.769-1.865 4.319-1.507-0.423 0.085-0.837 0.261-1.159 0.597-0.152 0.159-0.148 0.409 0.007 0.56 0.163 0.156 0.406 0.144 0.558-0.014 0.531-0.554 1.645-0.443 2.213-0.315 0.227 0.693 0.541 2.12-0.011 2.752-0.144 0.165-0.129 0.415 0.034 0.558 0.005 0.004 0.009 0.007 0.014 0.011 0.163 0.131 0.403 0.11 0.543-0.052 0.492-0.564 0.556-1.384 0.479-2.116 0.855 1.478 0.766 3.404-0.374 4.829-1.479 1.848-4.168 2.161-5.994 0.7z"></path>
</symbol>
<symbol id="icon-product-4" viewBox="0 0 25 32">
<path stroke-linejoin="miter" stroke-linecap="butt" stroke-miterlimit="4" stroke-width="0.3556" d="M17.855 25.537c-0.956 0.001-1.898 0.232-2.746 0.672s-1.576 1.078-2.123 1.859v-4.463l1.471-1.462 2.629 1.084 1.065-2.558 0.022 0.022h2.929v-2.862l2.654-1.094-1.121-2.693-0.029-0.012 1.967-1.959-2.010-2.003 1.089-2.616-2.57-1.060 0.020-0.022v-2.916h-2.872l-1.099-2.642-2.705 1.116-0.012 0.029-1.968-1.958-2.012 2-2.629-1.081-1.065 2.558-0.022-0.022h-2.929v2.86l-2.654 1.094 1.121 2.693 0.029 0.012-1.967 1.959 2.010 2.003-1.089 2.617 2.57 1.060-0.019 0.021v2.916h2.873l1.099 2.642 2.705-1.116 0.012-0.029 1.427 1.419v4.463c-0.547-0.781-1.276-1.419-2.123-1.859s-1.79-0.671-2.746-0.672h-7.034v0.539c0.002 1.571 0.629 3.077 1.745 4.187s2.629 1.735 4.207 1.737h12.985c1.578-0.002 3.091-0.626 4.207-1.737s1.743-2.617 1.745-4.187v-0.539h-7.034zM5.952 30.923c-1.197-0.001-2.353-0.441-3.245-1.236s-1.46-1.888-1.595-3.073h5.922c1.197 0.001 2.352 0.441 3.245 1.236s1.46 1.888 1.595 3.073h-5.922zM13.272 17.932c-0.137 0.019-0.26 0.031-0.381 0.042s-0.259 0.018-0.391 0.020c-0.022 0-0.044 0-0.066 0-0.166 0-0.329-0.011-0.491-0.025-0.131-0.013-0.266-0.030-0.413-0.054l-0.294-0.046-0.279-0.072c-0.55-0.141-1.076-0.361-1.563-0.652-0.089-0.054-0.181-0.103-0.267-0.162l-0.063-0.046c-0.050-0.035-0.097-0.073-0.146-0.108-0.632-0.466-1.165-1.052-1.569-1.723-0.408-0.676-0.676-1.427-0.787-2.208v-0.005c-0.019-0.135-0.031-0.256-0.042-0.377-0.015-0.144-0.027-0.293-0.027-0.445s0.011-0.315 0.024-0.471c0.013-0.139 0.030-0.283 0.054-0.441l0.045-0.289c0.020-0.097 0.049-0.192 0.074-0.287 0.142-0.546 0.363-1.069 0.655-1.552 0.054-0.089 0.105-0.181 0.162-0.269l0.019-0.026c0.043-0.062 0.091-0.12 0.136-0.18 0.467-0.629 1.054-1.159 1.727-1.562 0.487-0.292 1.015-0.512 1.565-0.653l0.292-0.075c0.108-0.022 0.216-0.034 0.325-0.050l0.042-0.006c0.134-0.019 0.255-0.031 0.374-0.042 0.144-0.011 0.289-0.022 0.436-0.022h0.021c0.169 0 0.337 0.011 0.502 0.025 0.13 0.013 0.263 0.030 0.409 0.054l0.294 0.046 0.279 0.072c0.551 0.141 1.078 0.361 1.565 0.653 0.088 0.054 0.179 0.103 0.264 0.162l0.063 0.046c0.050 0.035 0.097 0.073 0.146 0.108 0.632 0.466 1.165 1.052 1.569 1.723 0.408 0.676 0.676 1.427 0.787 2.208v0.005c0.019 0.135 0.031 0.256 0.042 0.377 0.011 0.149 0.023 0.298 0.023 0.45s-0.011 0.315-0.024 0.471c-0.013 0.139-0.030 0.283-0.054 0.441l-0.045 0.289c-0.020 0.097-0.049 0.192-0.074 0.287-0.142 0.546-0.363 1.069-0.655 1.552-0.054 0.089-0.105 0.181-0.162 0.269l-0.020 0.026c-0.043 0.062-0.091 0.12-0.136 0.18-0.468 0.629-1.057 1.16-1.731 1.562-0.487 0.291-1.013 0.51-1.563 0.652l-0.292 0.075c-0.108 0.022-0.216 0.034-0.325 0.050l-0.035 0.002zM17.085 20.409l-0.583 1.408-1.414-0.583-0.48-1.147v-1.357c0.387-0.125 0.762-0.283 1.121-0.472l0.786 0.782 0.57 1.369zM20.019 19.612h-1.399l-1.188-1.182-0.433-1.035c0.009-0.008 0.017-0.016 0.025-0.024 0.3-0.255 0.577-0.534 0.831-0.835l0.802 0.331 1.362 1.352v1.393zM21.047 16.686l-1.776-0.732-0.614-0.611c0.191-0.357 0.351-0.731 0.477-1.116h1.121l1.55 0.64 0.536 1.287-1.293 0.533zM21.96 13.149h-1.49l-1.025-0.422c0.020-0.215 0.034-0.434 0.034-0.655 0-0.178-0.009-0.361-0.027-0.557l1.26-0.52h1.247l1.082 1.077-1.082 1.077zM20.823 7.452l1.412 0.581-0.585 1.407-1.152 0.478h-1.363c-0.125-0.385-0.284-0.758-0.475-1.116l0.786-0.782 1.379-0.568zM20.019 4.532v1.393l-1.188 1.182-1.039 0.431c-0.011-0.013-0.024-0.025-0.035-0.038-0.253-0.294-0.53-0.566-0.828-0.814l0.332-0.798 1.359-1.355h1.399zM16.544 2.22l0.535 1.288-0.735 1.768-0.614 0.611c-0.359-0.19-0.734-0.349-1.121-0.474v-1.115l0.642-1.543 1.293-0.534zM11.362 2.6l1.082-1.077 1.082 1.077v1.483l-0.425 1.021c-0.216-0.020-0.433-0.033-0.657-0.033-0.18 0-0.364 0.009-0.56 0.026l-0.522-1.255v-1.241zM7.803 3.731l0.583-1.405 1.414 0.583 0.48 1.147v1.357c-0.387 0.125-0.762 0.283-1.121 0.473l-0.786-0.782-0.57-1.372zM4.87 4.532h1.399l1.188 1.182 0.433 1.035c-0.009 0.008-0.017 0.016-0.025 0.024-0.3 0.255-0.577 0.534-0.831 0.835l-0.805-0.329-1.359-1.354v-1.393zM3.842 7.458l1.776 0.732 0.614 0.611c-0.191 0.357-0.351 0.731-0.477 1.116h-1.121l-1.55-0.64-0.536-1.287 1.293-0.533zM2.929 10.995h1.49l1.025 0.422c-0.020 0.215-0.034 0.434-0.034 0.655 0 0.178 0.009 0.361 0.027 0.557l-1.26 0.52h-1.247l-1.082-1.077 1.082-1.077zM4.066 16.692l-1.412-0.581 0.585-1.407 1.152-0.478h1.363c0.125 0.385 0.284 0.758 0.475 1.116l-0.786 0.782-1.379 0.568zM4.87 19.612v-1.393l1.188-1.182 1.039-0.431c0.011 0.013 0.024 0.025 0.035 0.038 0.253 0.294 0.53 0.566 0.828 0.814l-0.331 0.8-1.36 1.353h-1.399zM8.345 21.924l-0.535-1.288 0.735-1.768 0.614-0.611c0.359 0.19 0.734 0.349 1.121 0.474v1.115l-0.643 1.543-1.293 0.534zM11.362 20.061l0.425-1.021c0.088 0.008 0.177 0.009 0.265 0.013 0.125 0.008 0.253 0.018 0.374 0.019l0.018 0.001c0.087 0 0.172-0.010 0.259-0.013 0.1-0.004 0.196-0.004 0.301-0.013l0.522 1.255v1.239l-1.082 1.077-1.082-1.077v-1.48zM18.937 30.923h-5.922c0.135-1.184 0.702-2.278 1.595-3.073s2.048-1.235 3.245-1.236h5.922c-0.135 1.184-0.702 2.278-1.595 3.073s-2.048 1.235-3.245 1.236z"></path>
</symbol>
<symbol id="icon-product-3" viewBox="0 0 30 32">
<path stroke-linejoin="miter" stroke-linecap="butt" stroke-miterlimit="4" stroke-width="0.4148" d="M0.743 14.616c0.161 0.627 0.46 1.213 0.876 1.717s0.939 0.915 1.534 1.205c-0.355 0.505-0.602 1.075-0.725 1.675s-0.12 1.218 0.009 1.816c0.129 0.599 0.381 1.166 0.74 1.668s0.82 0.928 1.354 1.253c0.497 0.304 1.053 0.506 1.634 0.595s1.174 0.061 1.743-0.081c2.146-0.533 4.201-3.228 5.657-5.636-1.348 4.362-4.633 11.059-12.137 11.349l0.050 1.232c7.671-0.295 11.304-6.555 12.948-11.19 0.067 2.479 0.489 5.109 1.811 6.423 0.407 0.404 0.893 0.724 1.43 0.942s1.113 0.328 1.695 0.324l0.034-0c0.63-0.008 1.251-0.14 1.827-0.387s1.095-0.605 1.525-1.051 0.764-0.973 0.979-1.547c0.216-0.575 0.31-1.186 0.277-1.796 0.628 0.046 1.259-0.031 1.856-0.228s1.146-0.508 1.615-0.915c0.47-0.408 0.85-0.903 1.117-1.457s0.417-1.154 0.44-1.765c0.022-0.57-0.076-1.139-0.287-1.671s-0.532-1.017-0.943-1.425c-1.764-1.753-5.972-2.004-9.017-1.93 2.68-1.361 6.083-3.491 6.746-5.79 0.302-1.122 0.133-2.314-0.468-3.315s-1.588-1.73-2.742-2.026c-0.64-0.178-1.311-0.219-1.969-0.122s-1.286 0.332-1.841 0.687c-0.273-0.551-0.658-1.043-1.131-1.447s-1.026-0.71-1.624-0.901c-0.598-0.191-1.23-0.263-1.858-0.211s-1.238 0.226-1.794 0.512c-0.519 0.267-0.978 0.633-1.347 1.077s-0.641 0.956-0.799 1.506c-0.676 2.342 1.17 5.968 2.752 8.49-2.564-1.609-6.342-3.56-8.81-2.948-0.569 0.141-1.103 0.394-1.568 0.742s-0.853 0.784-1.14 1.283c-0.592 1.016-0.753 2.216-0.449 3.346h-0zM26.896 16.524c0.291 0.29 0.518 0.634 0.667 1.012s0.218 0.781 0.202 1.185c-0.029 0.848-0.396 1.652-1.025 2.241-0.427 0.414-0.962 0.707-1.547 0.848s-1.2 0.123-1.776-0.051l-1.141-0.355 0.339 1.116c0.166 0.563 0.17 1.16 0.012 1.726s-0.472 1.078-0.909 1.483c-0.621 0.597-1.457 0.935-2.331 0.944-0.417 0.008-0.831-0.067-1.217-0.221s-0.735-0.383-1.025-0.673c-1.885-1.873-1.535-7.925-1.179-10.643 2.807-0.283 9.046-0.484 10.93 1.389zM11.181 4.037c0.113-0.389 0.306-0.753 0.568-1.067s0.587-0.574 0.956-0.763c0.485-0.253 1.026-0.385 1.576-0.384 0.316 0 0.631 0.043 0.935 0.126 0.583 0.152 1.112 0.455 1.53 0.877s0.71 0.948 0.843 1.519l0.254 1.137 0.826-0.843c0.42-0.421 0.95-0.723 1.533-0.872s1.198-0.142 1.777 0.023c0.83 0.208 1.541 0.727 1.978 1.443s0.564 1.571 0.352 2.378c-0.728 2.521-6.3 5.253-8.902 6.314-1.656-2.22-4.954-7.365-4.227-9.887v0zM2.296 11.879c0.203-0.354 0.477-0.663 0.807-0.911s0.708-0.427 1.112-0.528c0.242-0.057 0.49-0.085 0.738-0.083 2.761 0 7.292 2.899 9.343 4.413-1.151 2.502-4.091 7.849-6.704 8.498-0.404 0.1-0.824 0.119-1.236 0.055s-0.806-0.207-1.158-0.423c-0.742-0.448-1.275-1.159-1.486-1.983-0.156-0.566-0.15-1.163 0.018-1.725s0.49-1.071 0.933-1.468l0.887-0.783-1.165-0.273c-0.585-0.142-1.119-0.437-1.544-0.853s-0.725-0.936-0.868-1.505h-0c-0.222-0.821-0.106-1.693 0.324-2.432z"></path>
</symbol>
<symbol id="icon-product-2" viewBox="0 0 31 32">
<path d="M12.962 31.659c-2.382 0.007-4.742-0.459-6.943-1.37s-4.199-2.25-5.88-3.939c-0.044-0.044-0.079-0.096-0.103-0.153s-0.036-0.119-0.036-0.181c0-0.062 0.012-0.124 0.036-0.181s0.059-0.11 0.103-0.153l24.967-24.967c0.044-0.044 0.096-0.079 0.153-0.103s0.119-0.036 0.181-0.036 0.124 0.012 0.181 0.036c0.057 0.024 0.11 0.059 0.153 0.103 3.399 3.402 5.308 8.014 5.308 12.823s-1.909 9.421-5.308 12.823c-1.68 1.686-3.677 3.022-5.877 3.931s-4.557 1.375-6.937 1.368zM1.143 26.006c3.252 3.078 7.576 4.766 12.054 4.704s8.754-1.868 11.92-5.034c3.164-3.166 4.969-7.442 5.030-11.918s-1.627-8.799-4.705-12.050l-24.298 24.298z"></path>
<path d="M12.962 29.053c-2.040 0.007-4.062-0.391-5.948-1.17s-3.598-1.925-5.038-3.371c-0.089-0.089-0.139-0.209-0.139-0.334s0.050-0.246 0.139-0.334c0.089-0.089 0.209-0.139 0.334-0.139s0.246 0.050 0.334 0.139c2.738 2.733 6.448 4.268 10.317 4.268s7.579-1.535 10.317-4.268c2.733-2.738 4.268-6.448 4.268-10.317s-1.535-7.579-4.268-10.317c-0.089-0.089-0.139-0.209-0.139-0.334s0.050-0.246 0.139-0.334c0.089-0.089 0.209-0.139 0.334-0.139s0.246 0.050 0.334 0.139c2.911 2.915 4.546 6.866 4.546 10.986s-1.635 8.071-4.546 10.986c-1.44 1.446-3.152 2.592-5.038 3.371s-3.907 1.177-5.948 1.17z"></path>
<path d="M21.776 22.812c-0.062 0-0.123-0.012-0.181-0.035s-0.11-0.058-0.154-0.102l-1.465-1.47c-0.077-0.090-0.117-0.206-0.113-0.325s0.054-0.231 0.138-0.315 0.196-0.133 0.315-0.138c0.119-0.005 0.234 0.036 0.325 0.113l1.47 1.465c0.044 0.044 0.079 0.096 0.103 0.153s0.036 0.119 0.036 0.181c0 0.062-0.012 0.124-0.036 0.181s-0.059 0.11-0.103 0.153c-0.044 0.044-0.096 0.078-0.154 0.102s-0.119 0.035-0.181 0.035z"></path>
<path d="M23.901 19.971c-0.077-0-0.153-0.020-0.221-0.057l-1.823-0.975c-0.11-0.062-0.191-0.166-0.224-0.288s-0.017-0.252 0.045-0.362 0.166-0.191 0.288-0.224c0.122-0.034 0.252-0.017 0.362 0.045l1.823 0.994c0.092 0.050 0.166 0.129 0.208 0.226s0.051 0.204 0.025 0.306c-0.026 0.102-0.085 0.192-0.168 0.256s-0.185 0.099-0.29 0.098l-0.024-0.019z"></path>
<path d="M25.144 16.645c-0.033 0.005-0.066 0.005-0.099 0l-2.030-0.443c-0.125-0.026-0.234-0.101-0.304-0.208s-0.094-0.237-0.068-0.362 0.101-0.234 0.208-0.304c0.107-0.070 0.237-0.094 0.362-0.068l2.030 0.443c0.125 0.013 0.24 0.075 0.319 0.173s0.116 0.223 0.103 0.348c-0.013 0.125-0.075 0.24-0.173 0.319s-0.223 0.116-0.348 0.103z"></path>
<path d="M23.321 13.258c-0.125 0.004-0.246-0.041-0.338-0.126s-0.145-0.203-0.15-0.328c-0.004-0.125 0.041-0.246 0.126-0.338s0.203-0.145 0.328-0.15l2.073-0.151c0.062-0.004 0.124 0.003 0.183 0.023s0.113 0.051 0.16 0.091c0.047 0.041 0.085 0.090 0.113 0.146s0.044 0.116 0.048 0.178c0.009 0.123-0.030 0.244-0.109 0.338s-0.192 0.154-0.315 0.166l-2.12 0.151z"></path>
<path d="M22.695 10.366c-0.096 0-0.19-0.029-0.27-0.084s-0.14-0.132-0.173-0.223c-0.043-0.117-0.037-0.246 0.015-0.359s0.147-0.201 0.263-0.244l1.969-0.73c0.117-0.044 0.247-0.039 0.361 0.013s0.203 0.147 0.246 0.265 0.039 0.247-0.013 0.361c-0.052 0.114-0.147 0.203-0.265 0.246l-1.946 0.725c-0.060 0.022-0.124 0.032-0.188 0.028z"></path>
<path d="M21.277 7.77c-0.073 0-0.145-0.017-0.211-0.050s-0.122-0.080-0.166-0.139c-0.075-0.1-0.107-0.226-0.089-0.349s0.084-0.235 0.184-0.31l1.663-1.244c0.1-0.075 0.226-0.107 0.349-0.089s0.235 0.084 0.31 0.184c0.075 0.1 0.107 0.226 0.090 0.349s-0.084 0.235-0.184 0.31l-1.663 1.244c-0.082 0.061-0.181 0.094-0.283 0.094z"></path>
<path d="M18.936 24.941c-0.085-0-0.169-0.024-0.242-0.068s-0.133-0.107-0.173-0.182l-0.994-1.823c-0.062-0.11-0.079-0.24-0.045-0.362s0.114-0.226 0.224-0.288 0.24-0.079 0.362-0.045c0.122 0.034 0.226 0.114 0.288 0.224l0.994 1.823c0.059 0.109 0.072 0.238 0.037 0.357s-0.116 0.219-0.225 0.279c-0.066 0.049-0.144 0.078-0.226 0.085z"></path>
<path d="M15.61 26.18c-0.11 0.002-0.216-0.033-0.303-0.101s-0.146-0.164-0.169-0.271l-0.443-2.030c-0.026-0.125-0.002-0.255 0.068-0.362s0.179-0.182 0.304-0.208 0.255-0.002 0.362 0.068c0.107 0.070 0.182 0.179 0.208 0.304l0.443 2.030c0.025 0.121 0.002 0.247-0.065 0.351s-0.172 0.177-0.293 0.205c-0.037 0.010-0.075 0.015-0.113 0.014z"></path>
<path d="M12.072 26.429h-0.033c-0.062-0.004-0.122-0.021-0.178-0.048s-0.105-0.066-0.146-0.113-0.072-0.101-0.091-0.16c-0.020-0.059-0.027-0.121-0.023-0.183l0.151-2.073c0.005-0.062 0.021-0.122 0.049-0.178s0.067-0.105 0.114-0.145c0.047-0.041 0.101-0.071 0.16-0.091s0.121-0.027 0.183-0.022c0.062 0.005 0.122 0.021 0.178 0.049s0.105 0.067 0.145 0.114c0.040 0.047 0.071 0.102 0.091 0.16s0.027 0.121 0.022 0.183l-0.151 2.082c-0.012 0.117-0.066 0.225-0.154 0.303s-0.2 0.122-0.317 0.121z"></path>
<path d="M8.605 25.676c-0.056-0.001-0.112-0.010-0.165-0.028-0.112-0.044-0.203-0.128-0.255-0.237s-0.060-0.233-0.023-0.347l0.73-1.946c0.043-0.117 0.131-0.211 0.244-0.263s0.242-0.057 0.359-0.015c0.058 0.021 0.112 0.054 0.157 0.096s0.082 0.093 0.108 0.149c0.026 0.056 0.040 0.118 0.042 0.18s-0.008 0.124-0.030 0.182l-0.726 1.922c-0.034 0.090-0.094 0.168-0.173 0.223s-0.173 0.084-0.27 0.084z"></path>
<path d="M5.491 23.975c-0.102 0-0.201-0.033-0.283-0.094-0.1-0.075-0.166-0.187-0.184-0.31s0.015-0.249 0.090-0.349l1.244-1.663c0.075-0.1 0.187-0.166 0.31-0.184s0.249 0.015 0.349 0.089 0.166 0.187 0.184 0.31c0.018 0.124-0.015 0.249-0.089 0.349l-1.244 1.663c-0.044 0.058-0.101 0.106-0.166 0.139s-0.138 0.050-0.211 0.050z"></path>
</symbol>
<symbol id="icon-product-1" viewBox="0 0 13 32">
<path d="M13.283 0.329c0-0.182-0.152-0.329-0.341-0.329s-0.34 0.148-0.34 0.329v8.623c-2.468 0.137-4.583 1.759-5.62 4.065v-12.688c0-0.182-0.152-0.329-0.34-0.329s-0.341 0.148-0.341 0.329v12.688c-1.037-2.306-3.152-3.928-5.62-4.065v-8.623c0-0.182-0.153-0.329-0.341-0.329s-0.341 0.148-0.341 0.329v8.943c0 1.937 0.695 3.698 1.823 5.004-0.477-0.12-0.973-0.185-1.483-0.185-0.188 0-0.341 0.148-0.341 0.329 0 1.938 0.695 3.7 1.825 5.006-0.478-0.12-0.974-0.185-1.485-0.185-0.188 0-0.341 0.147-0.341 0.329 0 1.937 0.695 3.698 1.824 5.005-0.477-0.12-0.974-0.185-1.484-0.185-0.188 0-0.341 0.147-0.341 0.329 0 4.015 2.979 7.281 6.642 7.281s6.641-3.266 6.641-7.281c0-0.182-0.152-0.329-0.341-0.329-0.51 0-1.006 0.066-1.483 0.185 1.129-1.306 1.824-3.067 1.824-5.004 0-0.182-0.152-0.329-0.341-0.329-0.51 0-1.007 0.066-1.484 0.185 1.129-1.306 1.825-3.068 1.825-5.006 0-0.182-0.152-0.329-0.341-0.329-0.51 0-1.005 0.066-1.482 0.185 1.128-1.306 1.823-3.067 1.823-5.004v-8.943zM12.586 9.622c-0.159 3.357-2.572 6.054-5.588 6.254 0.159-3.357 2.572-6.054 5.588-6.254zM6.301 18.166c-0.298-0.662-0.684-1.267-1.143-1.796 0.37 0.093 0.752 0.154 1.143 0.176v1.621zM6.285 21.024c-3.016-0.2-5.43-2.897-5.588-6.254 3.016 0.2 5.43 2.896 5.588 6.254zM6.301 23.315c-0.298-0.663-0.685-1.268-1.144-1.798 0.371 0.093 0.752 0.154 1.144 0.176v1.622zM6.285 26.173c-3.016-0.2-5.43-2.896-5.588-6.253 3.016 0.2 5.43 2.896 5.588 6.253zM6.301 28.463c-0.298-0.662-0.685-1.267-1.143-1.797 0.37 0.093 0.752 0.154 1.143 0.176v1.621zM6.982 26.842c0.391-0.022 0.773-0.083 1.143-0.176-0.458 0.53-0.845 1.135-1.143 1.796v-1.621zM6.982 23.315v-1.621c0.391-0.022 0.773-0.083 1.143-0.176-0.458 0.53-0.846 1.135-1.143 1.797zM12.586 19.92c-0.159 3.357-2.572 6.054-5.588 6.253 0.159-3.357 2.572-6.053 5.588-6.253zM6.982 18.165v-1.62c0.391-0.022 0.772-0.083 1.142-0.176-0.458 0.53-0.845 1.135-1.142 1.796zM12.586 14.77c-0.159 3.357-2.572 6.054-5.588 6.254 0.159-3.358 2.572-6.054 5.588-6.254zM6.285 15.876c-3.016-0.2-5.43-2.897-5.588-6.254 3.016 0.2 5.43 2.897 5.588 6.254zM0.697 25.068c3.016 0.2 5.43 2.896 5.588 6.253-3.016-0.2-5.43-2.896-5.588-6.253zM6.998 31.321c0.159-3.357 2.572-6.054 5.588-6.253-0.159 3.357-2.572 6.054-5.588 6.253z"></path>
</symbol>
<symbol id="icon-arrow" viewBox="0 0 25 8">
<path d="M0.646446 3.64645C0.451185 3.84171 0.451185 4.15829 0.646446 4.35356L3.82843 7.53554C4.02369 7.7308 4.34027 7.7308 4.53553 7.53554C4.7308 7.34027 4.7308 7.02369 4.53553 6.82843L1.70711 4L4.53553 1.17157C4.7308 0.976313 4.7308 0.65973 4.53553 0.464468C4.34027 0.269206 4.02369 0.269206 3.82843 0.464468L0.646446 3.64645ZM25 3.5L1 3.5L1 4.5L25 4.5L25 3.5Z"/>
</symbol> 
</defs>
</svg>
